<svg xmlns="http://www.w3.org/2000/svg" xmlns:xlink="http://www.w3.org/1999/xlink" width="200px" height="150px" version="1.1" viewBox="0 0 200 150">
    <rect width="200" height="150" x="0" y="0" fill="#E8117F"/>
    <path fill="#FFFFFF" d="M68,92.2 L54.5,92.2 L54.5,114 L46.7,114 L46.7,92.2 L14.4,92.2 L14.4,86.4 L47.9,44 L54.5,44 L54.5,85.6 L68,85.6 L68,92.2 Z M46.7,56.5 L23.6,85.6 L46.7,85.6 L46.7,56.5 Z M75.5,79 C75.5,73.333305 75.999995,68.2500225 77,63.75 C78.000005,59.2499775 79.49999,55.4500155 81.5,52.35 C83.50001,49.2499845 86.033318,46.8833415 89.1,45.25 C92.166682,43.6166585 95.799979,42.8 100,42.8 C104.466689,42.8 108.249985,43.599992 111.35,45.2 C114.450016,46.800008 116.966657,49.133318 118.9,52.2 C120.833343,55.266682 122.233329,59.0499775 123.1,63.55 C123.966671,68.0500225 124.4,73.199971 124.4,79 C124.4,84.666695 123.900005,89.7499775 122.9,94.25 C121.899995,98.7500225 120.40001,102.549984 118.4,105.65 C116.39999,108.750016 113.866682,111.116658 110.8,112.75 C107.733318,114.383342 104.100021,115.2 99.9,115.2 C95.499978,115.2 91.7500155,114.316676 88.65,112.55 C85.5499845,110.783324 83.0166765,108.300016 81.05,105.1 C79.0833235,101.899984 77.666671,98.0833555 76.8,93.65 C75.933329,89.2166445 75.5,84.33336 75.5,79 Z M116.2,79 C116.2,75.466649 116.000002,72.100016 115.6,68.9 L85.9,96 C87.033339,99.800019 88.733322,102.833322 91,105.1 C93.266678,107.366678 96.233315,108.5 99.9,108.5 C105.766696,108.5 109.949988,106.066691 112.45,101.2 C114.950012,96.333309 116.2,88.933383 116.2,79 Z M83.8,79 C83.8,80.666675 83.8499995,82.266659 83.95,83.8 C84.0500005,85.333341 84.166666,86.833326 84.3,88.3 L114.1,61.3 C112.966661,57.699982 111.283344,54.833344 109.05,52.7 C106.816655,50.566656 103.800019,49.5 100,49.5 C94.066637,49.5 89.8833455,51.9499755 87.45,56.85 C85.0166545,61.7500245 83.8,69.133284 83.8,79 Z M188,92.2 L174.5,92.2 L174.5,114 L166.7,114 L166.7,92.2 L134.4,92.2 L134.4,86.4 L167.9,44 L174.5,44 L174.5,85.6 L188,85.6 L188,92.2 Z M166.7,56.5 L143.6,85.6 L166.7,85.6 L166.7,56.5 Z"/>
</svg>
